<svg height="22" viewBox="0 0 167 22" width="167" xmlns="http://www.w3.org/2000/svg"><path d="m74.328 84h-5.786l-5.852-5.962h-2.266v5.962h-4.576v-15.4h4.576v5.94h2.178l5.566-5.94h5.478l-7.414 7.392zm-.308-5.764c0-3.828 3.3-6.028 8.25-6.028s8.25 2.2 8.25 6.028-3.3 6.028-8.25 6.028-8.25-2.2-8.25-6.028zm4.334 0c0 1.452 1.342 2.728 3.916 2.728s3.916-1.276 3.916-2.728-1.342-2.728-3.916-2.728-3.916 1.276-3.916 2.728zm27.786-6.028c5.5 0 8.184 2.464 8.184 6.028s-2.684 6.028-8.184 6.028h-.66v4.136h-4.268v-4.136h-.66c-5.5 0-8.184-2.464-8.184-6.028s2.684-6.028 8.184-6.028h.66v-4.4h4.268v4.4zm-5.456 8.756h.528v-5.456h-.528c-2.86 0-4.048 1.188-4.048 2.728s1.188 2.728 4.048 2.728zm5.324 0c2.86 0 4.048-1.188 4.048-2.728s-1.188-2.728-4.048-2.728h-.528v5.456zm26.312-1.848v.418h-11.638c.55 1.32 2.024 1.782 3.982 1.782 1.54 0 2.508-.264 3.146-.77l4.312.176c-.88 2.266-3.454 3.542-7.458 3.542-5.016 0-8.492-1.782-8.492-6.028 0-4.202 3.432-6.028 8.294-6.028 5.104 0 7.854 1.98 7.854 6.908zm-7.854-3.96c-1.848 0-3.256.462-3.784 1.782h7.326c-.198-1.1-1.386-1.782-3.542-1.782zm8.8.924v-3.608h14.894v3.608h-5.258v7.92h-4.378v-7.92zm26.048-3.872c3.894 0 6.798 2.222 6.798 6.028s-2.904 6.028-6.754 6.028c-1.958 0-3.784-.528-4.994-1.87v6.006h-4.378v-15.928h4.07v1.98c1.166-1.65 3.168-2.244 5.258-2.244zm-1.342 8.756c2.376 0 3.806-1.1 3.806-2.728s-1.43-2.728-3.806-2.728-3.806 1.1-3.806 2.728 1.43 2.728 3.806 2.728zm26.048-1.848v.418h-11.638c.55 1.32 2.024 1.782 3.982 1.782 1.54 0 2.508-.264 3.146-.77l4.312.176c-.88 2.266-3.454 3.542-7.458 3.542-5.016 0-8.492-1.782-8.492-6.028 0-4.202 3.432-6.028 8.294-6.028 5.104 0 7.854 1.98 7.854 6.908zm-7.854-3.96c-1.848 0-3.256.462-3.784 1.782h7.326c-.198-1.1-1.386-1.782-3.542-1.782zm17.974-3.872c-3.366 0-4.862-1.562-4.95-3.784h2.904c.066.594.506 1.452 2.046 1.452 1.518 0 1.958-.858 2.046-1.452h2.904c-.088 2.222-1.606 3.784-4.95 3.784zm1.562 1.188h6.336v11.528h-4.18v-8.47l-5.302 8.47h-6.336v-11.528h4.18v8.47zm23.606 7.92h2.046v6.6h-4.136v-2.992h-9.416v2.992h-4.136v-6.6h1.386c.858-1.496 1.034-3.608 1.386-7.92h12.87zm-4.378 0v-4.312h-4.906c-.242 2.024-.374 3.014-.924 4.312z" fill="#fff" transform="translate(-55 -67)"/></svg>