<svg height="14" viewBox="0 0 20 14" width="20" xmlns="http://www.w3.org/2000/svg" xmlns:xlink="http://www.w3.org/1999/xlink"><mask id="a" fill="#fff"><path d="m.00116895 13.9988317v-13.98759665h19.89922675v13.98759665z" fill="#fff" fill-rule="evenodd"/></mask><path d="m7.77777778 9.64444444v-5.91111111l5.60000002 2.96585366zm11.13275132-8.5895571c-.7567391-.79215855-1.6049681-.79609179-1.9939556-.8424534-2.7847695-.20119889-6.96207-.20119889-6.96207-.20119889-.00865023 0-4.18585327 0-6.97072024.20119889-.389007.04636161-1.2369242.05029485-1.99393608.8424534-.59667092.60355772-.79083348 1.9741363-.79083348 1.9741363s-.1990137 1.60951322-.1990137 3.21900696v1.50890403c0 1.60947427.1990137 3.21896797.1990137 3.21896797s.19416256 1.3705981.79083348 1.9741558c.75701188.792178 1.75139848.7671182 2.19429407.8501447 1.59205114.1525785 6.76605662.1997969 6.76605662.1997969s4.18160613-.0062893 6.96637563-.2074687c.3889875-.0463811 1.2372165-.0502949 1.9939556-.8424729.5967099-.6035577.7911452-1.9741558.7911452-1.9741558s.1987214-1.6094937.1987214-3.21896797v-1.50890403c0-1.60949374-.1987214-3.21900696-.1987214-3.21900696s-.1944353-1.37057858-.7911452-1.9741363z" fill-rule="evenodd" mask="url(#a)"/></svg>