<svg height="16" viewBox="0 0 16 16" width="16" xmlns="http://www.w3.org/2000/svg"><path d="m50.0588235 36h-14.117647c-.5454708 0-.9411765.3949154-.9411765.9411765v14.117647c0 .5457342.3957057.9411765.9411765.9411765h7.5294117v-6.2745098h-1.8823529v-2.1960784h1.8823529v-1.882353c.0752855-2.1054662 1.3369597-3.231199 3.1372549-3.1372549.927229-.0939441 1.685182-.0278175 1.882353 0v2.1960785h-1.254902c-1.0024679-.0348688-1.1958421.4417169-1.2549019 1.2549019v1.5686275h2.5098039l-.3137255 2.1960784h-2.1960784v6.2745098h4.0784313c.5452073-.0007904.9411765-.3967595.9411765-.9411765v-14.117647c-.0002635-.5462611-.3957057-.9411765-.9411765-.9411765z" transform="translate(-35 -36)"/></svg>